<?xml version="1.0" encoding="UTF-8"?>
<svg width="420px" height="88px" viewBox="0 0 420 88" version="1.1" xmlns="http://www.w3.org/2000/svg" xmlns:xlink="http://www.w3.org/1999/xlink">
    <title>great-jobs-0_white</title>
    <g id="Page-1" stroke="none" stroke-width="1" fill="none" fill-rule="evenodd">
        <g id="Letter" transform="translate(-88.000000, -295.000000)" fill="#FFFFFF" fill-rule="nonzero">
            <g id="great-jobs-0" transform="translate(88.000000, 295.000000)">
                <g id="Group" transform="translate(95.000000, 75.000000)">
                    <polygon id="Path" points="0.14721 2.23188 0.14721 1.0876 7.31074 1.0876 7.31074 2.23188 4.44219 2.23188 4.44219 11.95046 3.01575 11.95046 3.01575 2.23188"></polygon>
                    <polygon id="Path" points="19.35446 1.0876 20.79657 1.0876 20.79657 11.95046 19.35446 11.95046 19.35446 7.04415 13.88384 7.04415 13.88384 11.95046 12.4574 11.95046 12.4574 1.0876 13.88384 1.0876 13.88384 5.91554 19.35446 5.91554"></polygon>
                    <polygon id="Path" points="32.16626 1.0876 32.16626 2.21621 27.83993 2.21621 27.83993 5.91554 31.69601 5.91554 31.69601 7.02847 27.83993 7.02847 27.83993 10.82185 32.16626 10.82185 32.16626 11.95046 26.41349 11.95046 26.41349 1.0876"></polygon>
                    <path d="M45.56326,1.0876 L49.45069,1.0876 C50.5584,1.0876 51.41531,1.35669 52.02141,1.89487 C52.62751,2.43305 52.93057,3.12537 52.93057,3.97182 C52.93057,5.18403 52.23564,5.98346 50.84578,6.37011 C51.54594,6.48506 52.11024,6.79856 52.53869,7.31062 C52.96714,7.82267 53.18137,8.4131 53.18137,9.08191 C53.18137,9.90747 52.86003,10.59195 52.21735,11.13535 C51.57467,11.67875 50.71515,11.95046 49.63879,11.95046 L45.56326,11.95046 L45.56326,1.0876 Z M46.9897,2.23188 L46.9897,5.80581 L49.38799,5.80581 C50.04635,5.80581 50.56101,5.64645 50.93199,5.32772 C51.30297,5.00899 51.48846,4.57531 51.48846,4.02668 C51.48846,3.47805 51.30297,3.04176 50.93199,2.71781 C50.56101,2.39386 50.04635,2.23188 49.38799,2.23188 L46.9897,2.23188 Z M46.9897,10.82185 L49.56042,10.82185 C50.25013,10.82185 50.79092,10.64942 51.1828,10.30457 C51.57468,9.95972 51.77062,9.48685 51.77062,8.88597 C51.77062,8.28509 51.55901,7.81222 51.13578,7.46737 C50.71255,7.12252 50.15086,6.95009 49.4507,6.95009 L46.9897,6.95009 L46.9897,10.82185 Z" id="Shape"></path>
                    <polygon id="Path" points="64.17486 1.0876 64.17486 2.21621 59.84853 2.21621 59.84853 5.91554 63.70461 5.91554 63.70461 7.02847 59.84853 7.02847 59.84853 10.82185 64.17486 10.82185 64.17486 11.95046 58.42209 11.95046 58.42209 1.0876"></polygon>
                    <path d="M70.76363,3.9875 C70.76363,4.3846 70.87336,4.71378 71.09281,4.97503 C71.31226,5.23628 71.59441,5.42961 71.93927,5.55501 C72.28412,5.68041 72.66816,5.79014 73.09139,5.88419 C73.51462,5.97824 73.93785,6.08535 74.36107,6.20553 C74.7843,6.32571 75.16834,6.47984 75.51319,6.66795 C75.85804,6.85605 76.14019,7.1382 76.35965,7.51441 C76.5791,7.89061 76.68883,8.35564 76.68883,8.9095 C76.68883,9.75596 76.36488,10.49269 75.71697,11.11969 C75.06906,11.74669 74.19387,12.0602 73.09139,12.0602 C71.98891,12.0602 71.09281,11.80679 70.40311,11.29996 C69.7134,10.79313 69.36855,10.10604 69.36855,9.23868 L70.88904,9.23868 C70.93084,9.72983 71.12678,10.12694 71.47686,10.42999 C71.82694,10.73304 72.34683,10.88457 73.03653,10.88457 C73.72624,10.88457 74.27486,10.70692 74.68242,10.35162 C75.08997,9.99632 75.29375,9.58093 75.29375,9.10545 C75.29375,8.62997 75.18402,8.26422 74.96457,8.00819 C74.74512,7.75216 74.46297,7.56145 74.11811,7.43605 C73.77326,7.31065 73.38922,7.20354 72.96599,7.11471 C72.54276,7.02588 72.11953,6.91877 71.69631,6.79337 C71.27308,6.66797 70.88904,6.50861 70.54419,6.31528 C70.19934,6.12195 69.91719,5.83458 69.69773,5.45315 C69.47828,5.07172 69.36855,4.59886 69.36855,4.03455 C69.36855,3.11494 69.69512,2.3756 70.34825,1.81652 C71.00138,1.25744 71.85306,0.9779 72.90329,0.9779 C73.95352,0.9779 74.78953,1.22086 75.41131,1.70679 C76.03309,2.19272 76.39101,2.86414 76.48506,3.72104 L74.90187,3.72104 C74.86007,3.29259 74.65891,2.92683 74.29838,2.62378 C73.93785,2.32073 73.45192,2.1692 72.84059,2.1692 C72.22926,2.1692 71.73027,2.32334 71.34362,2.63162 C70.95697,2.9399 70.76364,3.39186 70.76364,3.98752 L70.76363,3.9875 Z" id="Path"></path>
                    <polygon id="Path" points="81.58469 2.23188 81.58469 1.0876 88.74822 1.0876 88.74822 2.23188 85.87967 2.23188 85.87967 11.95046 84.45323 11.95046 84.45323 2.23188"></polygon>
                    <polygon id="Path" points="114.16805 1.0876 115.67286 1.0876 112.38108 11.95046 110.78222 11.95046 108.3369 3.17239 105.71915 11.95046 104.13596 11.96614 101.06364 1.08761 102.56845 1.08761 104.98242 10.32026 107.61584 1.08761 109.18335 1.08761 111.61299 10.28891"></polygon>
                    <path d="M127.98305,11.95046 L127.13659,9.56784 L122.30865,9.56784 L121.46219,11.95046 L120.0044,11.95046 L123.95453,1.0876 L125.52204,1.0876 L129.4565,11.95046 L127.98305,11.95046 Z M122.71621,8.43923 L126.72904,8.43923 L124.72262,2.82754 L122.71621,8.43923 Z" id="Shape"></path>
                    <polygon id="Path" points="138.61601 11.95046 137.18957 11.95046 137.18957 7.84358 133.64699 1.0876 135.2145 1.0876 137.89495 6.52687 140.55972 1.0876 142.14291 1.0876 138.61601 7.84358"></polygon>
                    <polygon id="Path" points="169.19936 2.23188 169.19936 1.0876 176.36289 1.0876 176.36289 2.23188 173.49434 2.23188 173.49434 11.95046 172.0679 11.95046 172.0679 2.23188"></polygon>
                    <path d="M189.39414,9.61487 C189.39414,9.61487 189.58485,9.41893 189.96628,9.02705 C190.34771,8.63517 190.53842,7.79655 190.53842,6.51119 C190.53842,5.22583 190.15699,4.19388 189.39414,3.41535 C188.63128,2.63682 187.65681,2.24755 186.47073,2.24755 C185.28465,2.24755 184.30756,2.63682 183.53948,3.41535 C182.7714,4.19388 182.38736,5.22583 182.38736,6.51119 C182.38736,7.79655 182.77401,8.83111 183.54732,9.61486 C184.32063,10.39862 185.29771,10.79049 186.47857,10.79049 C187.65943,10.79049 188.63129,10.39861 189.39414,9.61486 L189.39414,9.61487 Z M186.47857,12.06019 C186.47857,12.06019 186.0893,12.06019 185.31077,12.06019 C184.53224,12.06019 183.61002,11.53507 182.54411,10.48484 C181.4782,9.43461 180.94525,8.10745 180.94525,6.50336 C180.94525,4.89927 181.4782,3.57734 182.54411,2.53755 C183.61002,1.49777 184.9215,0.97788 186.47857,0.97788 C188.03563,0.97788 189.3445,1.49777 190.40519,2.53755 C191.46587,3.57733 191.99621,4.90188 191.99621,6.51119 C191.99621,8.1205 191.46587,9.44766 190.40519,10.49267 C189.34451,11.53768 188.03563,12.06019 186.47857,12.06019 L186.47857,12.06019 Z" id="Shape"></path>
                    <polygon id="Path" points="205.00134 11.95046 205.00134 1.0876 211.11464 1.0876 211.11464 2.23188 206.42778 2.23188 206.42778 5.91553 210.12711 5.91553 210.12711 7.04414 206.42778 7.04414 206.42778 11.95045"></polygon>
                    <polygon id="Path" points="215.9478 11.95046 215.9478 1.0876 217.37424 1.0876 217.37424 11.95046"></polygon>
                    <polygon id="Path" points="230.15468 1.0876 231.58112 1.0876 231.58112 11.95046 230.15468 11.95046 224.41759 3.32914 224.41759 11.95046 222.99115 11.95046 222.99115 1.0876 224.41759 1.0876 230.15468 9.70892"></polygon>
                    <path d="M238.62448,10.8532 L240.6309,10.8532 C241.99986,10.8532 243.04487,10.477 243.76592,9.72459 C244.48698,8.97218 244.8475,7.92195 244.8475,6.57389 C244.8475,5.22583 244.48697,4.1756 243.76592,3.42319 C243.04486,2.67078 241.99986,2.29458 240.6309,2.29458 L238.62448,2.29458 L238.62448,10.8532 Z M240.63089,1.0876 C242.3865,1.0876 243.77114,1.57875 244.7848,2.56106 C245.79846,3.54337 246.30529,4.88098 246.30529,6.57389 C246.30529,8.2668 245.79846,9.58613 244.7848,10.53186 C243.77114,11.47759 242.38651,11.95046 240.63089,11.95046 L237.19804,11.95046 L237.19804,1.0876 L240.63089,1.0876 Z" id="Shape"></path>
                    <path d="M266.83447,11.95046 L265.98801,9.56784 L261.16007,9.56784 L260.31361,11.95046 L258.85582,11.95046 L262.80595,1.0876 L264.37346,1.0876 L268.30792,11.95046 L266.83447,11.95046 Z M261.56763,8.43923 L265.58046,8.43923 L263.57404,2.82754 L261.56763,8.43923 Z" id="Shape"></path>
                    <path d="M285.65507,9.11326 L285.65507,1.0876 L287.08151,1.0876 L287.08151,9.11326 C287.08151,10.01197 286.80458,10.7278 286.25073,11.26075 C285.69688,11.7937 284.96537,12.06018 284.05621,12.06018 C283.14705,12.06018 282.41293,11.7937 281.85386,11.26075 C281.29478,10.7278 281.01524,10.01197 281.01524,9.11326 L282.47303,9.11326 C282.48348,9.61486 282.61672,10.02242 282.87275,10.33592 C283.12878,10.64942 283.52588,10.80617 284.06406,10.80617 C284.60224,10.80617 285.00195,10.64681 285.26321,10.32808 C285.52446,10.00935 285.65509,9.60441 285.65509,9.11326 L285.65507,9.11326 Z" id="Path"></path>
                    <path d="M301.21001,9.61487 C301.21001,9.61487 301.40072,9.41893 301.78215,9.02705 C302.16358,8.63517 302.35429,7.79655 302.35429,6.51119 C302.35429,5.22583 301.97286,4.19388 301.21001,3.41535 C300.44715,2.63682 299.47268,2.24755 298.2866,2.24755 C297.10052,2.24755 296.12343,2.63682 295.35535,3.41535 C294.58727,4.19388 294.20323,5.22583 294.20323,6.51119 C294.20323,7.79655 294.58988,8.83111 295.36319,9.61486 C296.1365,10.39862 297.11358,10.79049 298.29444,10.79049 C299.4753,10.79049 300.44716,10.39861 301.21001,9.61486 L301.21001,9.61487 Z M298.29444,12.06019 C298.29444,12.06019 297.90517,12.06019 297.12664,12.06019 C296.34811,12.06019 295.42589,11.53507 294.35998,10.48484 C293.29407,9.43461 292.76112,8.10745 292.76112,6.50336 C292.76112,4.89927 293.29407,3.57734 294.35998,2.53755 C295.42589,1.49777 296.73737,0.97788 298.29444,0.97788 C299.8515,0.97788 301.16037,1.49777 302.22106,2.53755 C303.28174,3.57733 303.81208,4.90188 303.81208,6.51119 C303.81208,8.1205 303.28174,9.44766 302.22106,10.49267 C301.16038,11.53768 299.8515,12.06019 298.29444,12.06019 L298.29444,12.06019 Z" id="Shape"></path>
                    <path d="M308.84902,1.0876 L312.73645,1.0876 C313.84416,1.0876 314.70107,1.35669 315.30717,1.89487 C315.91327,2.43305 316.21633,3.12537 316.21633,3.97182 C316.21633,5.18403 315.5214,5.98346 314.13154,6.37011 C314.8317,6.48506 315.396,6.79856 315.82445,7.31062 C316.2529,7.82267 316.46713,8.4131 316.46713,9.08191 C316.46713,9.90747 316.14579,10.59195 315.50311,11.13535 C314.86043,11.67875 314.00091,11.95046 312.92455,11.95046 L308.84902,11.95046 L308.84902,1.0876 Z M310.27546,2.23188 L310.27546,5.80581 L312.67375,5.80581 C313.33211,5.80581 313.84677,5.64645 314.21775,5.32772 C314.58873,5.00899 314.77422,4.57531 314.77422,4.02668 C314.77422,3.47805 314.58873,3.04176 314.21775,2.71781 C313.84677,2.39386 313.33211,2.23188 312.67375,2.23188 L310.27546,2.23188 Z M310.27546,10.82185 L312.84618,10.82185 C313.53589,10.82185 314.07668,10.64942 314.46856,10.30457 C314.86044,9.95972 315.05638,9.48685 315.05638,8.88597 C315.05638,8.28509 314.84477,7.81222 314.42154,7.46737 C313.99831,7.12252 313.43662,6.95009 312.73646,6.95009 L310.27546,6.95009 L310.27546,10.82185 Z" id="Shape"></path>
                </g>
                <g id="Group">
                    <path d="M23.2032,51.86181 C13.1767,51.86181 13.3346,23.51918 23.28215,23.51918 C33.2297,23.51918 33.2297,51.78286 23.2032,51.86181 Z M35.44027,23.51918 C35.59817,21.62441 37.41399,19.09805 38.12453,19.09805 C38.28243,19.09805 38.36138,19.25595 38.36138,19.57174 C38.36138,21.86126 40.3351,24.07182 42.86146,24.07182 C45.30887,24.07182 47.28259,22.01915 47.28259,19.57174 C47.28259,17.04538 45.30887,15.07166 42.86146,15.07166 C39.07192,15.07166 34.88763,17.44012 33.5455,22.80864 C30.62439,21.9402 27.15065,21.38756 23.28215,21.38756 C-3.16571,21.38756 -7.0342,44.99326 11.43983,52.0197 C1.96597,53.75657 -1.42883,59.28299 1.17648,63.30938 C2.51861,65.441 5.20287,66.07259 8.43977,66.07259 C13.49249,66.07259 20.04525,64.49361 25.57167,64.49361 C30.1507,64.49361 34.09814,65.59889 35.83502,69.46739 C39.54561,77.67807 31.49283,80.20443 27.54539,80.20443 C24.15059,80.20443 25.65062,77.20437 26.36116,75.86224 C27.78224,72.94113 26.20326,69.46739 23.3611,68.2042 C22.57161,67.8884 21.78212,67.73051 21.07158,67.73051 C18.78206,67.73051 16.65045,69.07264 15.70306,71.28321 C14.83462,73.17798 15.22937,75.23065 16.2557,76.88858 C18.46627,80.52023 22.7295,82.0992 27.38748,82.2571 C34.72972,82.415 43.33514,78.94125 47.67733,73.41483 C55.33537,63.54623 47.91418,53.51973 33.94023,55.0987 C25.9664,55.96714 16.0978,60.70407 9.54504,60.70407 C8.12396,60.70407 6.78183,60.46722 5.7555,59.91458 C3.78178,58.8093 5.28181,52.88813 18.62416,53.75657 C20.04524,53.91447 21.62422,53.99342 23.28214,53.99342 C49.4142,53.99342 53.44059,30.70352 35.44026,23.51917 L35.44027,23.51918 Z" id="Shape"></path>
                    <path d="M79.25687,62.5199 L79.25687,60.38828 C75.38838,59.67774 73.49361,59.1251 73.49361,54.15132 L73.49361,39.78263 C73.49361,35.2036 73.88835,29.67718 76.33577,29.67718 C76.73051,29.67718 77.12526,29.83508 77.59895,30.07192 C77.59895,34.80885 81.46744,38.67734 86.20437,38.67734 C90.86235,38.67734 94.73084,34.80885 94.73084,30.07192 C94.73084,25.25604 90.86235,21.4665 86.20437,21.4665 C81.0727,21.4665 74.67784,25.72974 72.78307,29.67718 L71.99358,21.38755 C64.73029,23.51917 60.46705,23.04548 52.73007,23.04548 L52.73007,25.09815 L54.15115,25.41395 C56.75646,25.96659 58.49334,28.17716 58.49334,30.86142 L58.49334,54.15132 C58.49334,59.1251 56.59857,59.67774 52.73007,60.38828 L52.73007,62.5199 L79.25687,62.5199 Z" id="Path"></path>
                    <path d="M119.67867,64.17782 C130.81045,64.17782 137.8369,58.17771 140.67906,50.75652 L138.62639,49.96703 C137.44216,54.86186 129.86307,61.09881 123.15242,61.09881 C117.31021,61.09881 112.17853,56.51978 112.17853,42.78268 L140.75801,42.78268 C140.83696,32.12459 134.67895,21.38755 119.67867,21.38755 C87.86229,21.38755 87.86229,64.17782 119.67867,64.17782 L119.67867,64.17782 Z M119.67867,23.44023 C124.33665,23.44023 126.78406,31.9667 127.09986,40.80897 L112.25748,40.80897 C112.57328,31.88775 115.09964,23.44023 119.67867,23.44023 Z" id="Shape"></path>
                    <path d="M145.33703,50.83547 C145.33703,59.20405 153.70561,64.09887 161.28469,64.09887 C166.57426,64.09887 171.23224,62.362 172.96912,56.75663 L173.91651,64.09887 C181.3377,62.51989 185.83778,62.44094 193.25897,62.51989 L193.25897,60.46722 L190.57471,59.83563 C188.67994,59.44089 187.49571,57.86191 187.49571,55.96714 L187.49571,34.8878 C187.49571,25.0192 179.44293,21.4665 171.07435,21.4665 C147.7055,21.4665 151.81084,36.30888 160.17941,36.30888 C163.96895,36.30888 166.89006,33.30882 166.89006,29.67718 C166.89006,27.46661 164.83739,24.07181 168.07429,23.59812 C171.86383,23.04548 172.49542,28.33505 172.49542,31.8088 L172.49542,40.57212 C168.39008,38.91419 164.67949,38.2826 161.36364,38.2826 C151.33714,38.2826 145.33703,44.59851 145.33703,50.83546 L145.33703,50.83547 Z M172.57438,42.86164 L172.57438,48.7828 C172.57438,56.44084 170.60066,59.51984 167.7585,60.07248 C158.67939,61.80935 157.5741,35.59834 172.57438,42.86164 L172.57438,42.86164 Z" id="Shape"></path>
                    <path d="M196.73272,25.01921 C197.75905,25.01921 198.46959,25.72975 198.46959,26.75608 L198.46959,53.36183 C198.46959,60.86197 204.70655,64.09887 210.62771,64.09887 C213.46987,64.09887 217.49626,63.23043 219.70682,60.94092 L218.28574,59.44089 C217.81205,60.30933 216.94361,60.78302 216.07517,60.78302 C214.73304,60.78302 213.46986,59.67774 213.39091,57.30927 L213.39091,25.0192 L219.15417,25.0192 L218.36468,21.38755 C216.46991,21.94019 215.99622,22.09809 213.46985,22.57178 L213.46985,11.51894 L211.41718,11.51894 C209.04872,16.65061 204.31179,22.49283 195.46952,22.96652 L195.46952,25.01919 L196.73272,25.01921 Z" id="Path"></path>
                    <path d="M240.94406,81.30972 C242.68093,81.94131 244.57571,82.25711 246.54943,82.25711 C254.44431,82.25711 263.04973,77.12544 263.12868,66.62524 L263.20763,21.38756 C255.94434,23.51918 250.02318,23.04549 242.36514,23.04549 L242.36514,25.09816 L243.78622,25.41396 C246.39153,25.9666 248.20735,28.17717 248.20735,30.94038 L248.1284,70.88849 C248.1284,78.07283 244.97045,79.88866 240.94406,79.25707 L240.94406,81.30972 Z M255.62854,1.7293 C250.97056,1.7293 247.02312,5.51884 247.02312,10.33472 C247.02312,14.9927 250.97056,18.86119 255.62854,18.86119 C260.36547,18.86119 264.23396,14.9927 264.23396,10.33472 C264.23396,5.51884 260.36547,1.7293 255.62854,1.7293 Z" id="Shape"></path>
                    <path d="M292.57659,61.9673812 C282.55009,62.04621 282.70799,23.51918 292.65554,23.51918 C302.60309,23.51918 302.60309,61.9673812 292.57659,61.9673812 Z M292.65554,21.38756 C261.62865,21.38756 261.62865,64.17782 292.65554,64.17782 C323.60348,64.17782 323.60348,21.38756 292.65554,21.38756 Z" id="Shape"></path>
                    <path d="M320.36658,5.36095 L321.70871,5.67675 C324.39297,6.22939 326.12984,8.43996 326.12984,11.20317 L326.12984,62.51991 L347.05128,64.09889 C360.86732,65.20417 372.4728,55.96716 372.4728,41.91427 C372.4728,27.70348 362.52525,21.46652 353.60403,21.46652 C348.23551,21.46652 343.18278,23.83498 341.13012,28.01927 L341.13012,0.93982 C333.47208,3.22934 328.57726,3.38723 320.36658,3.30828 L320.36658,5.36095 Z M341.13012,51.38811 L341.13012,32.67724 C341.60381,28.80875 343.41964,25.96659 347.05128,25.80869 C359.91994,25.25605 359.84099,62.51989 347.05128,61.96725 C343.10384,61.80935 341.13012,58.96719 341.13012,51.38811 Z" id="Shape"></path>
                    <path d="M379.5782,63.94098 L382.10456,62.8357 C382.8151,62.5199 383.68354,62.36201 384.63092,62.36201 C385.42041,62.36201 386.2099,62.51991 386.92044,62.67781 C390.31524,63.54625 394.57848,64.09889 398.76276,64.09889 C403.026,64.09889 407.21028,63.54625 410.52614,62.20412 C415.73676,60.0725 420,55.65137 420,49.96705 C420,43.01955 413.84199,39.5458 407.68398,37.33524 C401.60492,35.04572 392.6837,32.99305 392.6837,29.12456 C392.6837,25.41397 395.52586,23.67709 399.1575,23.67709 C405.31551,23.67709 413.84198,28.72981 414.31567,37.33524 L416.36834,37.25629 L416.36834,21.46651 L413.92093,22.49285 C413.21039,22.80865 412.263,22.96654 411.31562,22.96654 C410.60508,22.96654 409.81559,22.88759 409.0261,22.72969 C406.26289,21.9402 402.3944,21.46651 398.60485,21.46651 C391.65735,21.46651 379.10449,23.67708 379.10449,33.78253 C379.10449,43.01954 389.52574,44.91431 395.60479,47.51963 C401.05226,49.88809 405.07865,52.01971 405.07865,55.80926 C405.07865,59.99355 401.7628,62.12517 397.57851,62.12517 C390.55206,62.12517 381.15715,56.28296 380.68346,45.07222 L378.63079,45.07222 L379.5782,63.94098 Z" id="Path"></path>
                </g>
            </g>
        </g>
    </g>
</svg>