<?xml version="1.0" encoding="UTF-8"?>
<svg width="142px" height="192px" viewBox="0 0 142 192" version="1.1" xmlns="http://www.w3.org/2000/svg" xmlns:xlink="http://www.w3.org/1999/xlink">
    <title>great-jobs-2blue</title>
    <g id="Page-1" stroke="none" stroke-width="1" fill="none" fill-rule="evenodd">
        <g id="great-jobs-2" fill="#005596" fill-rule="nonzero">
            <path d="M89.81342,4.45008 L89.81342,4.45008 C81.24591,4.45008 73.16798,12.03844 71.94405,20.11638 C70.72012,28.19431 75.12627,33.82439 81.98027,35.53789 C76.35019,39.69925 63.37654,42.39189 53.09554,42.39189 C27.63781,42.39189 9.76844,58.79254 6.83101,78.6202 C4.87272,92.81778 10.99237,105.30186 23.96602,111.17672 C9.76844,115.09329 1.93529,124.39516 0.71136,133.45223 C-1.00214,144.95717 7.32058,155.48296 25.9243,155.48296 C33.75745,155.48296 46.7311,153.0351 54.56425,153.0351 C59.70475,153.0351 63.86611,156.70689 63.13176,161.11303 C61.90783,170.17011 45.99675,171.63882 39.14274,171.63882 C24.94516,171.63882 11.48194,166.49832 8.05493,154.01424 C3.64878,155.97253 0.71135,159.15474 0.22178,162.82653 C-1.24694,173.59711 16.37765,180.45111 35.47095,180.45111 C56.27775,180.45111 78.79805,172.37318 81.49069,153.03509 C82.95941,141.77494 76.1054,130.75958 55.78817,130.75958 C48.93417,130.75958 35.96051,133.20744 29.10651,133.20744 C23.23165,133.20744 18.58072,131.00437 19.31508,126.10865 C20.29422,119.74422 26.90344,115.09329 42.81452,115.09329 C68.27225,115.09329 86.38641,98.69264 89.07905,78.6202 C91.28212,64.17783 84.6729,51.44897 70.9649,45.57411 C85.16248,43.37104 101.07356,34.06917 103.03185,19.62681 C104.01099,11.30409 98.13613,4.45008 89.81341,4.45008 L89.81342,4.45008 Z M51.87161,51.20419 C59.45997,51.20419 63.86612,63.44348 61.66304,78.62021 C59.70475,93.79693 51.87161,106.28101 44.28324,106.28101 C36.69488,106.28101 32.04395,93.79693 34.00223,78.62021 C36.2053,63.44349 44.28324,51.20419 51.8716,51.20419 L51.87161,51.20419 Z" id="Shape"></path>
            <path d="M53.34032,166.9879 L53.34032,166.9879 C50.89246,183.14377 64.60047,191.2217 79.77719,191.2217 C96.9122,191.2217 116.73986,179.22719 120.90122,149.85289 L135.83316,43.61582 L132.65094,43.61582 C122.12515,51.44897 108.90671,54.3864 97.40177,54.3864 L97.15698,57.56862 C101.80791,57.56862 105.72449,62.95391 104.74534,71.52141 L92.75083,155.72775 C102.29748,165.51918 93.48519,182.40941 81.24589,182.40941 C78.55325,182.40941 75.61581,181.18548 74.39189,178.49284 C78.55325,175.8002 81.49068,172.12841 82.22504,166.9879 C83.44897,157.68604 76.83975,152.79032 69.74096,152.79032 C62.39738,152.79032 54.56424,157.68604 53.34031,166.9879 L53.34032,166.9879 Z M128.2448,0.7783 L128.2448,0.7783 C119.67729,0.7783 111.59936,7.87709 110.37543,16.4446 C109.1515,25.01211 115.27115,32.1109 123.83865,32.1109 C132.40616,32.1109 140.48409,25.01211 141.70802,16.4446 C142.93195,7.87709 136.8123,0.7783 128.2448,0.7783 Z" id="Shape"></path>
        </g>
    </g>
</svg>